<svg viewBox="0 0 56.5 42"
  xmlns="http://www.w3.org/2000/svg" height="56.5px">
  <g data-bx-workspace="master"
    xmlns="http://www.w3.org/2000/svg"
    xmlns:bx="https://boxy-svg.com" viewBox="0 0 56.5 38.6">
    <defs></defs>
    <path id="gearpoly0" data-id="0" class="gear" fill="none" stroke="#000" stroke-width="1" stroke-miterlimit="10" d="M -7.18 22.802 L 8.053 16.371 L 8.053 -9.36 L 8.035 -9.609 L 7.943 -10.21 L 7.715 -11.148 L 7.292 -12.401 L 6.62 -13.941 L 5.644 -15.732 L 4.319 -17.728 L 2.603 -19.881 L 0.459 -22.135 L -2.141 -24.43 L -5.22 -26.705 L -8.789 -28.887 L -12.856 -30.912 L -17.416 -32.704 L -17.567 -32.755 L -17.642 -32.782 L -17.68 -32.794 L -17.689 -32.798 L -17.698 -32.798 L -24.488 -29.931 L -24.494 -29.925 L -24.498 -29.916 L -24.515 -29.88 L -24.549 -29.809 L -24.617 -29.665 L -26.511 -25.146 L -27.895 -20.822 L -28.818 -16.742 L -29.334 -12.951 L -29.5 -9.486 L -29.378 -6.378 L -29.031 -3.648 L -28.523 -1.306 L -27.92 0.64 L -27.284 2.195 L -26.68 3.373 L -26.166 4.191 L -25.799 4.675 L -25.633 4.862 L -7.18 22.802 Z" style="fill-opacity: 0.9;" bx:origin="1" transform="matrix(-0.389013, 0.921232, -0.921232, -0.389013, 18.688676, 28.255077)"></path>
  </g>
</svg>
