<svg viewBox="0 0 200 200" xmlns="http://www.w3.org/2000/svg">
<path d="M99.90218,103.12606 L99.90218,103.12606 L97.82464,102.045975 L95.924805,101.05828 L94.37445,100.45001 L93.227585,100.13409 L92.52353,100.016815 L92.28617,100 L88.75,100 L88.344894,94.4115 L91.84409,93.90151 L92.076546,93.85064 L92.75633,93.63305 L93.84565,93.15504 L95.29207,92.32953 L97.0296,91.07816 L98.870255,89.43126 L97.96189,85.86999 L95.64023,85.5656 L93.51716,85.28725 L91.85226,85.24591 L90.666504,85.3413 L89.9648,85.4719 L89.736,85.53728 L86.413086,86.74672 L84.12103,81.6338 L87.23478,79.95777 L87.435814,79.83046 L88.00018,79.3935 L88.86031,78.57174 L89.93717,77.301315 L91.14192,75.53115 L92.3083,73.35403 L90.23669,70.3182 L87.95093,70.826225 L85.860695,71.290794 L84.28206,71.82138 L83.20044,72.31657 L82.585724,72.67929 L82.39308,72.81898 L79.68422,75.09198 L75.78168,71.071335 L78.13441,68.43142 L78.27977,68.243034 L78.66065,67.6394 L79.18786,66.57301 L79.76526,65.010895 L80.291916,62.935436 L80.64333,60.490685 L77.65834,58.346474 L75.68419,59.605637 L73.8789,60.75709 L72.57694,61.7956 L71.72992,62.63086 L71.27633,63.181957 L71.14308,63.379105 L69.375,66.44151 L64.332664,63.998093 L65.6406,60.712704 L65.71277,60.48596 L65.86423,59.788456 L65.99491,58.60607 L66.00321,56.94068 L65.78826,54.810257 L65.28233,52.39275 L61.743996,51.39878 L60.319557,53.257202 L59.01696,54.95666 L58.148716,56.37784 L57.638443,57.452423 L57.400696,58.125423 L57.342915,58.356255 L56.728867,61.8387 L51.15492,61.267216 L51.26031,57.732616 L51.250576,57.494865 L51.15434,56.787624 L50.87274,55.63185 L50.310947,54.064053 L49.380314,52.135628 L48.078056,50.036953 L44.41315,50.31311 L43.71023,52.546642 L43.067444,54.589127 L42.73763,56.221554 L42.62566,57.405857 L42.63243,58.119583 L42.657085,58.356255 L43.271133,61.8387 L37.837875,63.20808 L36.72801,59.8506 L36.637543,59.630516 L36.30522,58.99884 L35.64531,58.009083 L34.581177,56.727978 L33.047104,55.234146 L31.105595,53.707436 L27.75616,55.22041 L27.859549,57.559658 L27.954094,59.69881 L28.202494,61.345592 L28.502333,62.49677 L28.752802,63.16514 L28.856916,63.379105 L30.625,66.44151 L25.987764,69.5866 L23.796505,66.811195 L23.636223,66.63532 L23.107895,66.1554 L22.149263,65.451035 L20.711143,64.61115 L18.758665,63.73209 L16.412077,62.961487 L13.782106,65.52879 L14.679329,67.691605 L15.499805,69.66941 L16.296457,71.13193 L16.971941,72.11112 L17.4359,72.65352 L17.606916,72.81898 L20.315779,75.09198 L17.033884,79.633415 L14.025529,77.77485 L13.81476,77.6644 L13.154154,77.39413 L12.012426,77.060104 L10.373778,76.76273 L8.238393,76.60448 L5.769759,76.68293 L4.176465,79.99491 L5.7593036,81.72042 L7.2067504,83.29833 L8.455567,84.40018 L9.4252205,85.089294 L10.046709,85.44029 L10.264,85.53728 L13.586911,86.74672 L12.056202,92.13675 L8.593605,91.41918 L8.357773,91.38748 L7.6445656,91.35944 L6.457452,91.436066 L4.8159194,91.71708 L2.7551858,92.29871 L0.4622612,93.21675 L0.09781844,96.87394 L2.175359,97.954025 L4.075193,98.94172 L5.625549,99.54999 L6.772416,99.86591 L7.476475,99.983185 L7.713832,100 L11.25,100 L11.655103,105.5885 L8.155903,106.09849 L7.923453,106.14936 L7.2436676,106.36695 L6.154351,106.84496 L4.7079277,107.67047 L2.9704008,108.92184 L1.1297455,110.56874 L2.0381114,114.13001 L4.3597717,114.4344 L6.4828444,114.71275 L8.147743,114.75409 L9.333497,114.6587 L10.035205,114.5281 L10.264,114.46272 L13.586911,113.25328 L15.878964,118.3662 L12.765217,120.04223 L12.564185,120.16954 L11.999814,120.6065 L11.139683,121.42826 L10.062829,122.698685 L8.85808,124.46885 L7.691704,126.64597 L9.763316,129.6818 L12.04907,129.17378 L14.139307,128.70921 L15.717938,128.17862 L16.799559,127.68343 L17.41428,127.32071 L17.606916,127.18102 L20.315779,124.90802 L24.218327,128.92867 L21.865595,131.56857 L21.720228,131.75697 L21.339344,132.36061 L20.812143,133.42699 L20.234741,134.9891 L19.70808,137.06456 L19.356667,139.50932 L22.341658,141.65352 L24.315811,140.39436 L26.1211,139.2429 L27.423056,138.20439 L28.270082,137.36914 L28.723673,136.81804 L28.856916,136.6209 L30.625,133.55849 L35.66734,136.0019 L34.359398,139.2873 L34.28723,139.51404 L34.135773,140.21155 L34.00509,141.39392 L33.996784,143.05933 L34.211735,145.18974 L34.717667,147.60725 L38.256004,148.60123 L39.680443,146.7428 L40.98304,145.04333 L41.851284,143.62216 L42.361557,142.54758 L42.599304,141.87457 L42.657085,141.64375 L43.271133,138.1613 L48.84508,138.73279 L48.73969,142.26738 L48.749424,142.50514 L48.84566,143.21237 L49.12726,144.36815 L49.689053,145.93594 L50.619686,147.86438 L51.921944,149.96304 L55.58685,149.68689 L56.28977,147.45335 L56.932556,145.41087 L57.26237,143.77844 L57.37434,142.59415 L57.36757,141.88042 L57.342915,141.64375 L56.728867,138.1613 L62.162125,136.79192 L63.27199,140.1494 L63.362457,140.36949 L63.69478,141.00116 L64.35469,141.99092 L65.41882,143.27202 L66.952896,144.76585 L68.89441,146.29256 L72.24384,144.77959 L72.14045,142.44034 L72.045906,140.3012 L71.79751,138.6544 L71.497665,137.50323 L71.2472,136.83487 L71.14308,136.6209 L69.375,133.55849 L74.01224,130.4134 L76.20349,133.18881 L76.36378,133.36469 L76.892105,133.84459 L77.85074,134.54897 L79.28886,135.38885 L81.24133,136.26791 L83.58792,137.03851 L86.217896,134.4712 L85.32067,132.3084 L84.50019,130.33058 L83.703545,128.86807 L83.02806,127.88888 L82.5641,127.34648 L82.39308,127.18102 L79.68422,124.90802 L82.96612,120.366585 L85.97447,122.22515 L86.18524,122.3356 L86.84585,122.60587 L87.98757,122.939896 L89.62622,123.23727 L91.761604,123.39552 L94.23024,123.31707 L95.82353,120.00509 L94.2407,118.27958 L92.79325,116.70167 L91.54443,115.59982 L90.57478,114.910706 L89.95329,114.55971 L89.736,114.46272 L86.413086,113.25328 L87.943794,107.86325 L91.406395,108.58082 L91.64223,108.61252 L92.35543,108.64056 L93.54255,108.563934 L95.18408,108.28292 L97.24481,107.70129 L99.53774,106.78325" fill="none" stroke="black" stroke-width="0.2"/>
<circle cx="50" cy="100" fill="none" r="42.28616793536588" stroke="green" stroke-width="0.1"/>
<circle cx="50" cy="100" fill="none" r="45" stroke="red" stroke-width="0.1"/>
<circle cx="50" cy="100" fill="none" r="50" stroke="blue" stroke-width="0.1"/>
</svg>