<svg viewBox="0 0 200 200" xmlns="http://www.w3.org/2000/svg">
<path d="M68.88769858557166,43.7535069871135 L68.88769858557166,43.7535069871135 L66.65603879678332,40.902769651373795 L65.83595280246186,39.85518624539293 L65.01302103048651,38.929421857012585 L64.19902038546513,38.12147349354114 L63.405200355994516,37.42635810497966 L62.64220756921608,36.8381638217188 L61.92001474596241,36.35010672570323 L61.247854449002894,35.95459280183228 L60.63415798973941,35.64328468920616 L60.086499829701935,35.40717282669334 L59.61154778249832,35.23665056431056 L59.21501928963676,35.12159279118421 L58.901644010028654,35.05143761250271 L58.67513292816154,35.0152705919625 L58.538154150084154,35.0019110628348 L58.49231551964771,35 L47.5,35 L45.327201865727076,27.957351235186927 L54.40879077318041,21.764149849836322 L54.44558484081661,21.736744945380565 L54.5512265225139,21.648532147271354 L54.717987646092425,21.491032778237063 L54.93736456527282,21.256512880795068 L55.20014202987309,20.938046020814156 L55.496461811270606,20.529570958829233 L55.81589568768949,20.025943844318007 L56.147522369628156,19.422984617731558 L56.480007923661105,18.717517336318803 L56.80168923304572,17.907404172542986 L57.10066001613991,16.99157286799355 L57.36485890867955,15.970037460978922 L57.58215910355419,14.8439121422693 L57.74045903192018,13.61541813056267 L57.82777356235567,12.287883496986762 L57.83996236486326,8.479515103037556 L53.796954623726954,5.4758658573439405 L50.396121503927034,6.7173741583822135 L49.14638997021205,7.173601211730755 L48.01163581333745,7.670178907137565 L46.99169122468415,8.194669749963506 L46.085293325234076,8.73483499364011 L45.290109581591246,9.278722225870137 L44.60276984450054,9.814750479553037 L44.018904795213004,10.331792385983231 L43.53319055082424,10.81925290530478 L43.13939914684714,11.267144189020645 L42.83045458393551,11.666156151445822 L42.59849409600518,12.00772235124753 L42.434934269152386,12.284080810508634 L42.33054161488145,12.488329426948585 L42.27550717735529,12.61447566489593 L42.259524732789465,12.657480242177279 L38.862712429686844,23.11179354631058 L31.493323881096842,23.00194921676382 L28.40960465516107,12.451040430356748 L28.394911034391743,12.40757861136428 L28.343660752888162,12.279848147856576 L28.24540197284255,12.072578912977598 L28.09015149237983,11.791468430637678 L27.86847421227117,11.44314053871474 L27.571559191047644,11.035097943777782 L27.19129183840132,10.575668936872198 L26.720321817403217,10.073948572106698 L26.15212624896294,9.539734640437622 L25.481067836990096,8.98345880000344 L24.702447559768956,8.416113251473494 L23.81255160199126,7.849173372002461 L22.80869223256477,7.294516744397555 L21.689242365575033,6.76433903889081 L20.453663575465598,6.271067223356621 L16.83545654506363,5.082624428735208 L12.729458256881106,7.999574624313816 L12.859287587566733,11.617606287410311 L12.9069970172398,12.947153518947783 L13.02861215139141,14.179819801144632 L13.212252373983524,15.311921332270586 L13.445887694262488,16.340877200965576 L13.717429900168266,17.265212279791697 L14.014823404081465,18.084553055513556 L14.326135255738155,18.799616451166408 L14.639643803149415,19.412191732906916 L14.943925491051495,19.92511563202096 L15.227939297736249,20.342240849100307 L15.481108325009856,20.668398143112242 L15.693398072428884,20.90935224269566 L15.855390945780737,21.071751850350903 L15.958356570915228,21.16307404208299 L15.994317507386679,21.191563395349483 L24.88728757031316,27.652684346344085 L22.505553105253203,34.627445582025814 L11.518120904410047,34.29982672517694 L11.4722456797206,34.30037074828246 L11.334929582121095,34.30964177854513 L11.107441192781287,34.33904171560203 L10.792114199905171,34.399825780364075 L10.392332641664119,34.50301416390701 L9.912509285380075,34.65930503336319 L9.358057260213819,34.878989406189156 L8.735355097616072,35.17186839450253 L8.051705370029964,35.54717330888008 L7.315287153609599,36.01348909614716 L6.535102574862879,36.578681568339135 L5.720917733965486,37.249828860262895 L4.883198328860239,38.03315753102729 L4.033040333993036,38.93398370065333 L3.182096115491454,39.95665958653673 L0.9337323898616106,43.030529939725 L2.4390936311522324,47.83695354977685 L5.920165690052528,48.831511788905516 L7.199383272889339,49.19699011429546 L8.409299716216012,49.46224207807227 L9.54274020413283,49.63742846019797 L10.593532672487772,49.73319291629854 L11.556538728760493,49.760576179776876 L12.427677759302988,49.73092837385878 L13.203944114015023,49.655819950052965 L13.883417296467556,49.5469517755151 L14.465265125722325,49.41606489509383 L14.94973987443937,49.27485049438837 L15.338167426123537,49.13486058796473 L15.632929532344424,49.0074199519748 L15.83743928828207,48.90353981282544 L15.956109981814226,48.83383379329566 L15.994317507386675,48.80843660465051 L24.887287570313156,42.34731565365591 L30.784683267319053,46.7677994902692 L27.077795944048702,57.116228687788286 L27.064137116718406,57.16002673155063 L27.030521382702997,57.29348700687139 L26.98818460609064,57.51892640211864 L26.948552287385624,57.83760350245588 L26.923150976425916,58.24970532265251 L26.92351885486985,58.75434098704466 L26.96111601083222,59.34954240315389 L27.047234930476854,60.032271937287746 L27.19291173086931,60.79843706218701 L27.408838655159784,61.642911908642915 L27.705278345216936,62.559565615173085 L28.09198039819512,63.541297332510446 L28.578100702231225,64.58007770301003 L29.17212403258557,65.66699659930103 L29.881790373130812,66.79231687178608 L32.110432202021194,69.88051602168849 L37.14679490266805,69.93409898145188 L39.168386421670384,66.93073811392816 L39.911276937196945,65.82706890963307 L40.537431288568605,64.75833735663294 L41.05429581173435,63.73450696402679 L41.47008595202114,62.76473678411611 L41.7937142202639,61.85732549284249 L42.03471424615259,61.01966136537139 L42.20316138603092,60.258178410965115 L42.30959035981939,59.57831889706705 L42.3649104066771,58.98450245717122 L42.380318461390544,58.48010194075495 L42.367210863224656,58.067426126491284 L42.33709411604565,57.74770938231819 L42.301495222894204,57.521108317912564 L42.27187211983111,57.386705436890615 L42.25952473278946,57.34251975782273 L38.86271242968684,46.88820645368942 L44.889237880603815,42.645454475754235 L53.58568772319977,49.36875430684171 L53.62312132835264,49.39527896342207 L53.73966175977384,49.46849091945555 L53.940984582193096,49.578420191064666 L54.23181745505654,49.714589405747304 L54.61590013976569,49.86609395391158 L55.095950857431816,50.021685076985136 L55.67363920286314,50.16985540946675 L56.3495657848757,50.29892647837147 L57.123248726476675,50.39713765217648 L57.993117121194786,50.4527360226635 L58.95651150401131,50.454066697020735 L60.00969135716858,50.38966297424527 L61.14784963278957,50.24833587929582 L62.36513423592617,50.01926253059216 L63.65467637355647,49.6920728213338 L67.28041649819029,48.52681450681376 z" fill="none" stroke="black" stroke-width="0.2"/>
</svg>