<svg viewBox="0 0 200 200" xmlns="http://www.w3.org/2000/svg">
<path d="M48.53445,100.75358 L48.53445,100.75358 L47.962402,100.52914 L47.187225,100.225006 L46.613792,100.06705 L46.261765,100.00841 L46.143085,100 L46.12331,99.085815 L46.241516,99.07228 L46.59068,98.99848 L47.156746,98.81587 L47.91805,98.47851 L48.474354,98.158005 L48.393375,97.3189 L47.794746,97.180145 L46.983547,96.99212 L46.393223,96.919334 L46.036407,96.91258 L45.91777,96.92154 L45.765102,96.01998 L45.880074,95.98938 L46.214775,95.865524 L46.748222,95.60245 L47.45229,95.15782 L47.955997,94.75974 L47.753708,93.941376 L47.141254,93.89126 L46.311325,93.82334 L45.716694,93.83729 L45.362698,93.88256 L45.24663,93.9087 L44.964317,93.03897 L45.073612,92.99196 L45.38671,92.82069 L45.876167,92.48274 L46.507996,91.940346 L46.948376,91.47316 L46.62909,90.69297 L46.015865,90.73256 L45.18489,90.78622 L44.59863,90.88659 L44.254993,90.98292 L44.143967,91.02567 L43.738033,90.20632 L43.839317,90.1439 L44.12414,89.92886 L44.559177,89.523254 L45.1053,88.894646 L45.472965,88.368324 L45.04348,87.64293 L44.44256,87.771385 L43.628246,87.94546 L43.062847,88.13012 L42.736904,88.27546 L42.633286,88.33393 L42.112377,87.58241 L42.20349,87.505905 L42.45397,87.25169 L42.825317,86.78706 L43.274094,86.08563 L43.561207,85.51139 L43.03068,84.85626 L42.454865,85.07085 L41.67458,85.361626 L41.14209,85.62664 L40.840782,85.81789 L40.74678,85.89082 L40.122,85.22316 L40.201004,85.1342 L40.411804,84.84623 L40.71154,84.33248 L41.053406,83.57319 L41.253845,82.96326 L40.633587,82.39236 L40.095154,82.68849 L39.365517,83.08978 L38.877293,83.429504 L38.60704,83.66258 L38.524662,83.74843 L37.809326,83.17885 L37.874535,83.07933 L38.04116,82.76374 L38.262897,82.21182 L38.490566,81.41085 L38.600067,80.77823 L37.903294,80.30373 L37.41371,80.6751 L36.750282,81.17835 L36.316727,81.58554 L36.083286,81.855484 L36.014286,81.95241 L35.22364,81.49305 L35.273666,81.3851 L35.392567,81.048615 L35.53158,80.47029 L35.640198,79.6447 L35.65642,79.002884 L34.897987,78.63489 L34.467697,79.073586 L33.88461,79.668076 L33.51496,80.13405 L33.323315,80.435104 L33.26916,80.541046 L32.42006,80.2017 L32.453835,80.087616 L32.522472,79.737404 L32.5758,79.145004 L32.563057,78.31239 L32.485657,77.67506 L31.681723,77.42141 L31.319893,77.91808 L30.829578,78.59113 L30.531715,79.105965 L30.385944,79.43172 L30.347792,79.54441 L29.45833,79.33231 L29.475136,79.21453 L29.492048,78.858055 L29.458559,78.264206 L29.324718,77.44232 L29.155346,76.823044 L28.32305,76.689156 L28.037392,77.23322 L27.6503,77.97048 L27.430569,78.5232 L27.333784,78.86671 L27.312445,78.98376 L26.40158,78.90342 L26.401058,78.78445 L26.365887,78.429306 L26.246288,77.846664 L25.994207,77.053024 L25.736473,76.46501 L24.89355,76.45373 L24.690153,77.03359 L24.414532,77.81936 L24.27762,78.39818 L24.23188,78.75211 L24.227812,78.871025 L23.314959,78.92417 L23.297117,78.80654 L23.210613,78.460304 L23.007454,77.90128 L22.642508,77.15281 L22.3019,76.60858 L21.46632,76.72015 L21.34952,77.32345 L21.191244,78.140976 L21.140068,78.73356 L21.146349,79.090385 L21.159637,79.20862 L20.26425,79.39411 L20.229471,79.280334 L20.093475,78.95038 L19.811089,78.426895 L19.341051,77.73953 L18.924837,77.2507 L18.114405,77.48274 L18.086689,78.09662 L18.049133,78.928474 L18.084784,79.5222 L18.142952,79.874306 L18.173313,79.98934 L17.314476,80.30323 L17.263502,80.195724 L17.080914,79.88909 L16.725317,79.41231 L16.160208,78.800705 L15.677253,78.377686 L14.909243,78.72525 L14.971204,79.336624 L15.055167,80.165085 L15.176886,80.74729 L15.285701,81.08717 L15.332487,81.19656 L14.528504,81.63216 L14.462421,81.53322 L14.237133,81.25644 L13.815905,80.8365 L13.1677685,80.313705 L12.628367,79.96551 L11.919148,80.421196 L12.069465,81.01703 L12.273159,81.82444 L12.47835,82.38271 L12.635492,82.70313 L12.697708,82.80455 L11.965715,83.352554 L11.885931,83.2643 L11.622745,83.02326 L11.144861,82.669136 L10.427512,82.24628 L9.843162,81.98033 L9.2078495,82.53443 L9.443318,83.10202 L9.762401,83.87117 L10.046691,84.39362 L10.248813,84.687744 L10.325131,84.77902 L9.68073,85.427765 L9.588945,85.352066 L9.293468,85.151924 L8.769117,84.871155 L7.9978437,84.55724 L7.3809977,84.37921 L6.8331327,85.019905 L7.1487346,85.54717 L7.5764055,86.26166 L7.933736,86.73715 L8.176529,86.99871 L8.265324,87.0779 L7.7222476,87.81356 L7.6204185,87.75203 L7.2989497,87.597046 L6.7393055,87.39561 L5.9305463,87.19735 L5.294352,87.11102 L4.8456116,87.82466 L5.23462,88.300354 L5.761764,88.94496 L6.184519,89.36336 L6.462808,89.586784 L6.5621862,89.6522 L6.1320105,90.45909 L6.0223074,90.41304 L5.681699,90.30651 L5.098689,90.188705 L4.2696815,90.11031 L3.6276982,90.117546 L3.2876463,90.888916 L3.7417703,91.302895 L4.3571525,91.86388 L4.836321,92.21626 L5.144175,92.39679 L5.252019,92.44704 L4.943912,93.30797 L4.8286734,93.27838 L4.4761834,93.22258 L3.8822346,93.19092 L3.050647,93.23406 L2.416558,93.334694 L2.192442,94.147354 L2.7020028,94.4908 L3.392507,94.95621 L3.9178767,95.23507 L4.2487345,95.36884 L4.362746,95.402855 L4.1832743,96.29947 L4.0649557,96.28698 L3.7080977,96.2831 L3.1158686,96.33825 L2.2994251,96.50202 L1.6867445,96.69389 L1.5833411,97.530525 L2.1374784,97.79613 L2.888388,98.15603 L3.4487617,98.35543 L3.7955716,98.439606 L3.9133198,98.45666 L3.866309,99.36984 L3.7474322,99.37471 L3.393812,99.42283 L2.815925,99.56363 L2.0320268,99.84453 L1.4538126,100.123566 L1.4733257,100.96634 L2.0602288,101.14842 L2.8555393,101.39516 L3.4389737,101.51084 L3.794344,101.543625 L3.9133198,101.54334 L3.9997714,102.45365 L3.8828704,102.47578 L3.5400245,102.57487 L2.9887962,102.79831 L2.2541506,103.190346 L1.7227268,103.5506 L1.8647405,104.381546 L2.4719007,104.47624 L3.2946615,104.60455 L3.8887215,104.63405 L4.245078,104.61474 L4.362746,104.597145 L4.580817,105.48516 L4.4683833,105.52407 L4.143619,105.67203 L3.630798,105.97334 L2.961063,106.46817 L2.4877558,106.90196 L2.7492433,107.70338 L3.36372,107.70866 L4.1963954,107.715805 L4.7884197,107.65849 L5.1381674,107.5875 L5.252019,107.55296 L5.5970626,108.399765 L5.4914923,108.45463 L5.1917315,108.64829 L4.7282476,109.021065 L4.1376967,109.60814 L3.732594,110.10622 L4.107982,110.86102 L4.716679,110.77677 L5.541522,110.66261 L6.1188927,110.51971 L6.454577,110.39855 L6.5621862,110.3478 L7.026848,111.13534 L6.9303913,111.204994 L6.6620226,111.44024 L6.257754,111.876526 L5.7589746,112.54332 L5.43071,113.09508 L5.9119983,113.787186 L6.5019417,113.615204 L7.301372,113.38216 L7.8517833,113.156715 L8.16625,112.987976 L8.265324,112.9221 L8.8397,113.63359 L8.754413,113.716545 L8.523156,113.98836 L8.186719,114.47885 L7.7903414,115.21117 L7.545912,115.80484 L8.122842,116.419495 L8.681458,116.16345 L9.438437,115.81649 L9.950159,115.51331 L10.236706,115.30058 L10.325131,115.22098 L10.996981,115.841255 L10.92468,115.935745 L10.735464,116.238335 L10.47403,116.77259 L10.188502,117.55482 L10.033116,118.17775 L10.693393,118.70185 L11.208776,118.3672 L11.907171,117.91372 L12.369295,117.53926 L12.621815,117.28708 L12.697708,117.19545 L13.452711,117.711296 L13.394938,117.81531 L13.251797,118.14222 L13.070936,118.70885 L12.902344,119.52431 L12.839315,120.16323 L13.568865,120.58561 L14.03003,120.17949 L14.654956,119.62915 L15.057633,119.1914 L15.270743,118.905136 L15.332487,118.80344 L16.154552,119.20386 L16.11254,119.31517 L16.018522,119.65944 L15.922091,120.24636 L15.874026,121.07768 L15.904697,121.71897 L16.687971,122.030624 L17.08509,121.56168 L17.623226,120.92622 L17.957876,120.4345 L18.127035,120.12026 L18.173313,120.01066 L19.044918,120.28712 L19.01956,120.40336 L18.976671,120.75765 L18.966724,121.352356 L19.040215,122.181816 L19.163929,122.811806 L19.984234,123.006096 L20.308844,122.48433 L20.74872,121.77729 L21.00821,121.24208 L21.12981,120.90656 L21.159637,120.79138 L22.062206,120.93799 L22.054045,121.05669 L22.063198,121.413445 L22.139948,122.003265 L22.333424,122.81319 L22.547548,123.41845 L23.387398,123.49123 L23.63258,122.92776 L23.964823,122.16421 L24.14362,121.596924 L24.215075,121.24727 L24.227812,121.128975 L25.142109,121.14261 L25.151316,121.26122 L25.212317,121.612854 L25.374126,122.18521 L25.683466,122.95833 L25.983437,123.52596 L26.824934,123.475685 L26.98546,122.88252 L27.20299,122.078735 L27.297283,121.49146 L27.317066,121.13513 L27.312445,121.01624 L28.218983,120.89661 L28.245363,121.01262 L28.35691,121.351616 L28.600332,121.89432 L29.018942,122.61416 L29.398365,123.132065 L30.223574,122.9598 L30.296024,122.34959 L30.394201,121.52269 L30.401985,120.92795 L30.369675,120.57253 L30.347792,120.45559 L31.227251,120.20523 L31.27024,120.31617 L31.429958,120.635315 L31.749804,121.13679 L32.26876,121.788 L32.719547,122.245155 L33.51088,121.95457 L33.493713,121.34031 L33.470448,120.50793 L33.391552,119.918396 L33.30784,119.57147 L33.26916,119.458954 L34.102795,119.08321 L34.16148,119.186714 L34.365963,119.4792 L34.755413,119.928764 L35.36366,120.497475 L35.876205,120.88412 L36.616795,120.481415 L36.510372,119.8762 L36.366158,119.056076 L36.202267,118.48431 L36.06893,118.153275 L36.014286,118.04759 L36.78433,117.554474 L36.857456,117.64832 L37.10235,117.90792 L37.553104,118.29599 L38.237675,118.77008 L38.801052,119.07797 L39.475117,118.57173 L39.281708,117.988464 L39.01962,117.198074 L38.774227,116.656265 L38.594112,116.348175 L38.524662,116.25157 L39.2147,115.651596 L39.300713,115.733795 L39.58079,115.95497 L40.08325,116.27327 L40.82955,116.64263 L41.431755,116.86522 L42.024925,116.26623 L41.748653,115.71733 L41.37428,114.97353 L41.052612,114.47322 L40.82956,114.19463 L40.74678,114.10918 L41.342106,113.41512 L41.439175,113.483925 L41.74847,113.661964 L42.29192,113.90371 L43.08405,114.16048 L43.712246,114.29301 L44.21188,113.61404 L43.85863,113.11121 L43.379948,112.42985 L42.98886,111.981705 L42.727623,111.73857 L42.633286,111.66607 L43.121212,110.89273 L43.22726,110.94667 L43.559185,111.077774 L44.132042,111.23782 L44.953117,111.37652 L45.593914,111.41617 L45.989365,110.671684 L45.56667,110.225655 L44.99388,109.62125 L44.541714,109.234825 L44.247856,109.03231 L44.143967,108.97433 L44.514095,108.13818 L44.62687,108.1761 L44.974346,108.257484 L45.5644,108.33241 L46.396915,108.35008 L47.03666,108.29601 L47.319496,107.501884 L46.83637,107.122154 L46.18168,106.60758 L45.678066,106.291115 L45.357853,106.133545 L45.24663,106.0913 L45.49107,105.21018 L45.608162,105.23128 L45.963783,105.2612 L46.55846,105.24942 L47.38468,105.14568 L48.00973,104.99905 L48.17393,104.17219 L47.64066,103.86685 L46.918022,103.453094 L46.3737,103.213326 L46.03396,103.10406 L45.91777,103.07846 L46.031315,102.171135 L46.15023,102.17496 L46.50642,102.15278 L47.09304,102.05454 L47.89535,101.83161 L48.492393,101.59553" fill="none" stroke="black" stroke-width="0.2"/>
<circle cx="25" cy="100" fill="none" r="21.191860465116278" stroke="black" stroke-width="0.2"/>
<circle cx="25" cy="100" fill="none" r="21.14308396768294" stroke="green" stroke-width="0.1"/>
<circle cx="25" cy="100" fill="none" r="22.5" stroke="red" stroke-width="0.1"/>
<circle cx="25" cy="100" fill="none" r="23.54651162790698" stroke="blue" stroke-width="0.1"/>
</svg>